<?xml version="1.0" encoding="UTF-8"?>
<svg width="90px" height="26px" viewBox="0 0 90 26" version="1.1" xmlns="http://www.w3.org/2000/svg" xmlns:xlink="http://www.w3.org/1999/xlink">
    <!-- Generator: Sketch 54.1 (76490) - https://sketchapp.com -->
    <title>globals/logos/mozilla-black</title>
    <desc>Created with Sketch.</desc>
    <g id="Symbols" stroke="none" stroke-width="1" fill="none" fill-rule="evenodd">
        <g id="globals/footer/desktop" transform="translate(-863.000000, -83.000000)">
            <g id="Group" transform="translate(863.000000, 83.000000)">
                <g id="Logos/mozilla-black">
                    <g id="color/white" transform="translate(0.000000, 0.000000)" fill="#FFFFFF">
                        <rect id="Rectangle" x="0" y="0" width="90" height="26"></rect>
                    </g>
                    <path d="M26.1593407,20.6545455 L21.4435564,20.6545455 L21.4435564,14.25 C21.4435564,12.2818182 20.7962038,11.5272727 19.523976,11.5272727 C17.9775225,11.5272727 17.3526474,12.6363636 17.3526474,14.2272727 L17.3526474,18.1818182 L18.8496503,18.1818182 L18.8496503,20.6545455 L14.1383616,20.6545455 L14.1383616,14.25 C14.1383616,12.2818182 13.491009,11.5272727 12.2187812,11.5272727 C10.6723277,11.5272727 10.0474525,12.6363636 10.0474525,14.2272727 L10.0474525,18.1818182 L12.1918082,18.1818182 L12.1918082,20.6545455 L5.33616384,20.6545455 L5.33616384,18.1818182 L6.83316683,18.1818182 L6.83316683,11.75 L5.33616384,11.75 L5.33616384,9.27727273 L10.0474525,9.27727273 L10.0474525,10.9909091 C10.7217782,9.78181818 11.8951049,9.05 13.464036,9.05 C15.0869131,9.05 16.5794206,9.83181818 17.1323676,11.4954545 C17.7572428,9.98181818 19.0294705,9.05 20.8006993,9.05 C22.8191808,9.05 24.6668332,10.2863636 24.6668332,12.9818182 L24.6668332,18.1818182 L26.1638362,18.1818182 L26.1638362,20.6545455 L26.1593407,20.6545455 Z" id="Path" fill="#000000"></path>
                    <path d="M33.4195804,20.9045455 C29.9535465,20.9045455 27.5574426,18.7636364 27.5574426,15.1318182 C27.5574426,11.8045455 29.5534466,9.05454545 33.5949051,9.05454545 C37.6363636,9.05454545 39.6053946,11.8 39.6053946,14.9772727 C39.6053946,18.6090909 37.0114885,20.9045455 33.4195804,20.9045455 Z M33.5454545,11.55 C31.9000999,11.55 30.8751249,12.7863636 30.8751249,14.9272727 C30.8751249,16.8954545 31.7742258,18.4090909 33.5184815,18.4090909 C35.1908092,18.4090909 36.2877123,17.0454545 36.2877123,14.8772727 C36.2877123,12.5818182 35.0649351,11.55 33.5454545,11.55 Z" id="Combined-Shape" fill="#000000"></path>
                    <polygon id="Path" fill="#000000" points="51.5589411 20.6545455 41.7317682 20.6545455 41.4080919 18.9409091 47.5939061 11.7545455 44.0784216 11.7545455 43.5794206 13.5181818 41.2597403 13.2636364 41.6598402 9.27727273 51.5364635 9.27727273 51.7882118 10.9909091 45.5484515 18.1818182 49.1898102 18.1818182 49.7157842 16.4181818 52.2602398 16.6681818"></polygon>
                    <polygon id="Path" fill="#000000" points="57.9785215 20.6545455 54.6113886 20.6545455 54.6113886 16.5681818 57.9785215 16.5681818"></polygon>
                    <polygon id="Path" fill="#000000" points="57.9785215 13.3636364 54.6113886 13.3636364 54.6113886 9.27727273 57.9785215 9.27727273"></polygon>
                    <polygon id="Path" fill="#000000" points="60.0824176 20.6545455 64.9465534 3.30454545 68.1158841 3.30454545 63.2517483 20.6545455"></polygon>
                    <polygon id="Path" fill="#000000" points="66.6188811 20.6545455 71.4785215 3.30454545 74.6478521 3.30454545 69.7837163 20.6545455"></polygon>
                    <path d="M83.8816184,20.9045455 C82.3846154,20.9045455 81.5619381,20.0227273 81.4135864,18.6363636 C80.7662338,19.7954545 79.6198801,20.9045455 77.7992008,20.9045455 C76.1763237,20.9045455 74.3331668,20.0227273 74.3331668,17.65 C74.3331668,14.85 77.0034965,14.1954545 79.5704296,14.1954545 C80.1953047,14.1954545 80.8426573,14.2227273 81.4180819,14.2954545 L81.4180819,13.9181818 C81.4180819,12.7590909 81.3911089,11.3727273 79.5704296,11.3727273 C78.8961039,11.3727273 78.3746254,11.4227273 77.8486513,11.7 L77.4845155,12.9818182 L74.9175824,12.7045455 L75.3581419,10.0863636 C77.3271728,9.27727273 78.3251748,9.05454545 80.1728272,9.05454545 C82.5914086,9.05454545 84.6368631,10.3136364 84.6368631,12.9136364 L84.6368631,17.8545455 C84.6368631,18.5090909 84.8886114,18.7363636 85.4100899,18.7363636 C85.5584416,18.7363636 85.7112887,18.7090909 85.8821179,18.6590909 L85.9090909,20.3727273 C85.3021978,20.7045455 84.5784216,20.9045455 83.8816184,20.9045455 Z M77.6463536,17.2727273 C77.6463536,18.0045455 77.997003,18.5863636 78.968032,18.5863636 C80.1143856,18.5863636 81.3371628,17.7545455 81.4135864,15.8636364 C80.8921079,15.7863636 80.3166833,15.7136364 79.7907093,15.7136364 C78.6443556,15.7090909 77.6463536,16.0363636 77.6463536,17.2727273 Z" id="Combined-Shape" fill="#000000"></path>
                </g>
            </g>
        </g>
    </g>
</svg>